G04 Layer: TopLayer*
G04 EasyEDA v6.5.34, 2024-07-20 14:38:50*
G04 d238affa5e1f45398f1abd9929531197,9f2f25eebc5e4964923e048cec00becc,10*
G04 Gerber Generator version 0.2*
G04 Scale: 100 percent, Rotated: No, Reflected: No *
G04 Dimensions in inches *
G04 leading zeros omitted , absolute positions ,3 integer and 6 decimal *
%FSLAX36Y36*%
%MOIN*%

%ADD10C,0.0250*%
%ADD11R,0.0394X0.0433*%
%ADD12O,0.07678X0.022378*%
%ADD13C,0.0300*%

%LPD*%
D10*
X48499Y180000D02*
G01*
X48499Y91500D01*
X65000Y75000D01*
X106500Y75000D01*
X-180000Y-75000D02*
G01*
X-200000Y-75000D01*
X-235000Y-40000D01*
X-235000Y140000D01*
X-195000Y180000D01*
X-120399Y180000D01*
X106500Y-75000D02*
G01*
X180000Y-75000D01*
X-106500Y25000D02*
G01*
X-180000Y25000D01*
X-106500Y-25000D02*
G01*
X-180000Y-25000D01*
X-106500Y-75000D02*
G01*
X-180000Y-75000D01*
X-120435Y179998D02*
G01*
X-120435Y249564D01*
X-95000Y275000D01*
X20000Y275000D01*
X50000Y245000D01*
X48479Y243479D01*
X48479Y180000D01*
X-120432Y-210000D02*
G01*
X-120432Y-249567D01*
X-105000Y-265000D01*
X90000Y-265000D01*
X119320Y-235679D01*
X119320Y-210000D01*
X-57442Y-210000D02*
G01*
X-40000Y-192557D01*
X-40000Y-40000D01*
X-55000Y-25000D01*
X-106500Y-25000D01*
X56331Y-210000D02*
G01*
X56331Y-131331D01*
X-5000Y-70000D01*
X-5000Y-10000D01*
X-40000Y25000D01*
X-106500Y25000D01*
X119320Y-210000D02*
G01*
X119320Y-115000D01*
X106500Y-102179D01*
X106500Y-75000D01*
X-49600Y180000D02*
G01*
X-49600Y119600D01*
X30000Y40000D01*
X30000Y-45000D01*
X60000Y-75000D01*
X106500Y-75000D01*
X119299Y180000D02*
G01*
X180000Y180000D01*
X245000Y115000D01*
X245000Y30000D01*
X190000Y-25000D01*
X106500Y-25000D01*
D11*
G01*
X-120430Y180000D03*
G01*
X-49560Y180000D03*
G01*
X48479Y180000D03*
G01*
X119349Y180000D03*
G01*
X-120439Y-210000D03*
G01*
X-57440Y-210000D03*
G01*
X119329Y-210000D03*
G01*
X56329Y-210000D03*
D12*
G01*
X106500Y-75000D03*
G01*
X106500Y-25000D03*
G01*
X106500Y25000D03*
G01*
X106500Y75000D03*
G01*
X-106500Y-75000D03*
G01*
X-106500Y-25000D03*
G01*
X-106500Y25000D03*
G01*
X-106500Y75000D03*
D13*
G01*
X-180000Y25000D03*
G01*
X-180000Y-25000D03*
G01*
X-180000Y-75000D03*
G01*
X180000Y-75000D03*
M02*
