G04 Layer: BottomSilkscreenLayer*
G04 EasyEDA v6.5.34, 2024-07-20 14:38:50*
G04 d238affa5e1f45398f1abd9929531197,9f2f25eebc5e4964923e048cec00becc,10*
G04 Gerber Generator version 0.2*
G04 Scale: 100 percent, Rotated: No, Reflected: No *
G04 Dimensions in inches *
G04 leading zeros omitted , absolute positions ,3 integer and 6 decimal *
%FSLAX36Y36*%
%MOIN*%

%ADD10C,0.0100*%

%LPD*%
G36*
X131640Y112960D02*
G01*
X199140Y-133360D01*
X293880Y-133360D01*
X226280Y112960D01*
G37*
G36*
X10520Y112960D02*
G01*
X78080Y-133280D01*
X172700Y-133360D01*
X172700Y-133060D01*
X105200Y112960D01*
G37*
G36*
X-109520Y112960D02*
G01*
X-109520Y112700D01*
X-42060Y-133200D01*
X-41920Y-133360D01*
X52640Y-133280D01*
X-14880Y112940D01*
G37*
G36*
X-140940Y112579D02*
G01*
X-271940Y111180D01*
X-272000Y111100D01*
X-262100Y71300D01*
X-262060Y70860D01*
X-291080Y71080D01*
X-282680Y40300D01*
X-249820Y40300D01*
X-248039Y44240D01*
X-245900Y47460D01*
X-242180Y51200D01*
X-238939Y53339D01*
X-235780Y54840D01*
X-235960Y55720D01*
X-245159Y90120D01*
X-245159Y90520D01*
X-206500Y90760D01*
X-206500Y91140D01*
X-208400Y96820D01*
X-191940Y90879D01*
X-191360Y90879D01*
X-191360Y91120D01*
X-193619Y98460D01*
X-190440Y98460D01*
X-188120Y90980D01*
X-188039Y90900D01*
X-135060Y91260D01*
X-134960Y91320D01*
G37*
G36*
X-296740Y104900D02*
G01*
X-296580Y104500D01*
X-288900Y74620D01*
X-265600Y74620D01*
X-273340Y104900D01*
G37*
G36*
X-134320Y88920D02*
G01*
X-187140Y88539D01*
X-187300Y88379D01*
X-185280Y81940D01*
X-188340Y81840D01*
X-188480Y82000D01*
X-190500Y88379D01*
X-191340Y88480D01*
X-202700Y81060D01*
X-203020Y81020D01*
X-205580Y88480D01*
X-216720Y88300D01*
X-242000Y88140D01*
X-242120Y88000D01*
X-233440Y55599D01*
X-230420Y56260D01*
X-225700Y56460D01*
X-222620Y56060D01*
X-219140Y55160D01*
X-216220Y53900D01*
X-214100Y52699D01*
X-211560Y50820D01*
X-209360Y48780D01*
X-207280Y46180D01*
X-205680Y43540D01*
X-204600Y41180D01*
X-203760Y38600D01*
X-203280Y36360D01*
X-202960Y33620D01*
X-202960Y31920D01*
X-164520Y31920D01*
X-146200Y69220D01*
X-130700Y69500D01*
X-128920Y69700D01*
G37*
G36*
X-138440Y66560D02*
G01*
X-143700Y66480D01*
X-160700Y33620D01*
X-148600Y33540D01*
X-148360Y33780D01*
X-134960Y61640D01*
X-135220Y62160D01*
G37*
G36*
X-121940Y57980D02*
G01*
X-129740Y53160D01*
X-129960Y52939D01*
X-126740Y49940D01*
X-126320Y50100D01*
X-122140Y53640D01*
X-108520Y39660D01*
X-108219Y39660D01*
X-108040Y40119D01*
G37*
G36*
X-134900Y55119D02*
G01*
X-143800Y37300D01*
X-129920Y34020D01*
X-124000Y46000D01*
X-124740Y46700D01*
X-134660Y55119D01*
G37*
G36*
X-224620Y53800D02*
G01*
X-230420Y53700D01*
X-234120Y52740D01*
X-236940Y51540D01*
X-239720Y49800D01*
X-242240Y47680D01*
X-244820Y44540D01*
X-246320Y42000D01*
X-247440Y39420D01*
X-248400Y35700D01*
X-248580Y30840D01*
X-248200Y28140D01*
X-247520Y25560D01*
X-246420Y22820D01*
X-245957Y22020D01*
X-238860Y22020D01*
X-217360Y44960D01*
X-215500Y43280D01*
X-235500Y21860D01*
X-237100Y20240D01*
X-238860Y22020D01*
X-245957Y22020D01*
X-244920Y20259D01*
X-243120Y17980D01*
X-240920Y15820D01*
X-238140Y13839D01*
X-234920Y12260D01*
X-231860Y11319D01*
X-228800Y10820D01*
X-225420Y10820D01*
X-222360Y11279D01*
X-219460Y12120D01*
X-216160Y13700D01*
X-213680Y15420D01*
X-210580Y18380D01*
X-208560Y21220D01*
X-206840Y24760D01*
X-206000Y27639D01*
X-205520Y30560D01*
X-205520Y34060D01*
X-206040Y37320D01*
X-207120Y40640D01*
X-208460Y43280D01*
X-209860Y45380D01*
X-211960Y47760D01*
X-213980Y49500D01*
X-216119Y50920D01*
X-218980Y52360D01*
X-221480Y53160D01*
G37*
G36*
X-138360Y33860D02*
G01*
X-137540Y24520D01*
X-115460Y24520D01*
X-115559Y25560D01*
X-134040Y27580D01*
X-133820Y33320D01*
X-137300Y33820D01*
G37*
G36*
X-203100Y29500D02*
G01*
X-203299Y28300D01*
X-204060Y25059D01*
X-204899Y22839D01*
X-206640Y19500D01*
X-208500Y16880D01*
X-211580Y13799D01*
X-213733Y12280D01*
X-186920Y12240D01*
X-164140Y2680D01*
X-164120Y40D01*
X-187320Y9740D01*
X-187320Y12280D01*
X-213733Y12280D01*
X-214400Y11820D01*
X-217900Y10020D01*
X-220740Y9060D01*
X-224140Y8340D01*
X-229780Y8340D01*
X-233400Y9060D01*
X-236220Y10040D01*
X-239360Y11600D01*
X-239360Y11299D01*
X-236320Y-300D01*
X-183660Y-320D01*
X-161220Y-9720D01*
X-160720Y-10040D01*
X-160820Y-12520D01*
X-183700Y-2940D01*
X-183800Y-300D01*
X-236320Y-300D01*
X-233159Y-12380D01*
X-180760Y-12380D01*
X-157760Y-22000D01*
X-157680Y-24620D01*
X-180799Y-14980D01*
X-180900Y-12380D01*
X-233159Y-12380D01*
X-232600Y-14520D01*
X-232340Y-14760D01*
X-140200Y-51880D01*
X-138820Y-52320D01*
X-162860Y29500D01*
G37*
G36*
X-231700Y-17580D02*
G01*
X-231800Y-17640D01*
X-213500Y-87780D01*
X-212760Y-83660D01*
X-211660Y-80380D01*
X-210320Y-77700D01*
X-208600Y-75100D01*
X-206220Y-72380D01*
X-203200Y-69920D01*
X-201060Y-68600D01*
X-198039Y-67180D01*
X-195460Y-66380D01*
X-192719Y-65780D01*
X-186119Y-65780D01*
X-182780Y-66520D01*
X-180000Y-67500D01*
X-177420Y-68800D01*
X-175320Y-70140D01*
X-173440Y-71680D01*
X-173280Y-71520D01*
X-182680Y-37420D01*
G37*
G36*
X-175479Y-40279D02*
G01*
X-175580Y-40519D01*
X-173160Y-48860D01*
X-170960Y-55940D01*
X-144640Y-56040D01*
X-144880Y-52680D01*
G37*
G36*
X-172320Y-58440D02*
G01*
X-172460Y-58680D01*
X-165560Y-81800D01*
X-134460Y-81800D01*
X-141440Y-58700D01*
X-141600Y-58440D01*
G37*
G36*
X-188860Y-68140D02*
G01*
X-191759Y-68300D01*
X-194579Y-68760D01*
X-197560Y-69740D01*
X-200140Y-71000D01*
X-202700Y-72700D01*
X-205680Y-75540D01*
X-207420Y-77860D01*
X-208900Y-80440D01*
X-209126Y-81020D01*
X-202659Y-81020D01*
X-201300Y-79060D01*
X-201100Y-79080D01*
X-175880Y-97780D01*
X-177360Y-99680D01*
X-177580Y-99680D01*
X-202360Y-81320D01*
X-202659Y-81020D01*
X-209126Y-81020D01*
X-209899Y-82980D01*
X-210660Y-85920D01*
X-211040Y-89680D01*
X-210680Y-93379D01*
X-209920Y-96380D01*
X-208920Y-98960D01*
X-207380Y-101620D01*
X-205920Y-103620D01*
X-203180Y-106380D01*
X-200300Y-108340D01*
X-197600Y-109700D01*
X-194740Y-110620D01*
X-191920Y-111180D01*
X-186759Y-111180D01*
X-183460Y-110480D01*
X-181119Y-109640D01*
X-177940Y-108020D01*
X-175479Y-106180D01*
X-173800Y-104660D01*
X-171840Y-102220D01*
X-170740Y-100480D01*
X-169420Y-97880D01*
X-168460Y-94960D01*
X-167940Y-92040D01*
X-167940Y-87360D01*
X-168520Y-84300D01*
X-169640Y-81080D01*
X-170960Y-78540D01*
X-172800Y-75960D01*
X-175320Y-73380D01*
X-177800Y-71520D01*
X-180159Y-70220D01*
X-182700Y-69200D01*
X-185780Y-68420D01*
G37*
G36*
X-165900Y-84060D02*
G01*
X-165900Y-84460D01*
X-165400Y-87200D01*
X-165380Y-92040D01*
X-165900Y-95100D01*
X-166700Y-97880D01*
X-167860Y-100580D01*
X-169500Y-103320D01*
X-170960Y-105239D01*
X-173220Y-107620D01*
X-175799Y-109640D01*
X-178299Y-111140D01*
X-181260Y-112420D01*
X-183939Y-113200D01*
X-186759Y-113680D01*
X-189500Y-113880D01*
X-193039Y-113560D01*
X-195600Y-113040D01*
X-198520Y-112060D01*
X-201260Y-110740D01*
X-204620Y-108480D01*
X-207880Y-105239D01*
X-209440Y-103140D01*
X-204860Y-120860D01*
X-204760Y-120960D01*
X-86940Y-120340D01*
X-86840Y-120220D01*
X-97180Y-84060D01*
G37*
G36*
X-90719Y-122720D02*
G01*
X-204100Y-123320D01*
X-204200Y-123440D01*
X-201100Y-135340D01*
X-189980Y-135140D01*
X-85600Y-133980D01*
X-83000Y-133820D01*
X-86160Y-122720D01*
G37*
D10*
X-150009Y275007D02*
G01*
X-150009Y215007D01*
X-98508Y215007D02*
G01*
X-150000Y215001D01*
X149991Y275007D02*
G01*
X149991Y215007D01*
X149991Y215007D02*
G01*
X98492Y215007D01*
M02*
